<svg xmlns="http://www.w3.org/2000/svg" width="55.313" height="35.96" viewBox="0 0 55.313 35.96">
  <metadata><?xpacket begin="﻿" id="W5M0MpCehiHzreSzNTczkc9d"?>
<x:xmpmeta xmlns:x="adobe:ns:meta/" x:xmptk="Adobe XMP Core 5.6-c142 79.160924, 2017/07/13-01:06:39        ">
   <rdf:RDF xmlns:rdf="http://www.w3.org/1999/02/22-rdf-syntax-ns#">
      <rdf:Description rdf:about=""/>
   </rdf:RDF>
</x:xmpmeta>
                                                                                                    
                                                                                                    
                                                                                                    
                                                                                                    
                                                                                                    
                                                                                                    
                                                                                                    
                                                                                                    
                                                                                                    
                                                                                                    
                                                                                                    
                                                                                                    
                                                                                                    
                                                                                                    
                                                                                                    
                                                                                                    
                                                                                                    
                                                                                                    
                                                                                                    
                                                                                                    
                           
<?xpacket end="w"?></metadata>
<defs>
    <style>
      .cls-1 {
        fill: #fff;
        fill-rule: evenodd;
      }
    </style>
  </defs>
  <path id="Фигура_8" data-name="Фигура 8" class="cls-1" d="M145.418,5737.92l-0.476,3.41c-0.164,1.13-.344,2.22-0.524,3.34l-0.115.66c-0.541,3.2-1.017,5.8-1.525,8.19-0.557,2.67-1.2,5.52-2.082,8.44-0.492,1.65-.984,3-1.509,4.29a22.034,22.034,0,0,1-1.033,2.15,11.043,11.043,0,0,1-1.508,2.16,5.4,5.4,0,0,1-1.115.94,3.523,3.523,0,0,1-1.492.56,3.019,3.019,0,0,1-1.591-.18,4.791,4.791,0,0,1-1.3-.74,9.468,9.468,0,0,1-1.771-1.98,21.555,21.555,0,0,1-1.246-2.06,42.464,42.464,0,0,1-1.9-4.15c-0.59-1.45-1.148-2.92-1.607-4.15l-0.885-2.43c-0.722-1.97-1.41-3.84-2.132-5.65-0.606-1.52-1.164-2.65-1.639-3.64-0.066-.13-0.148-0.26-0.214-0.4-0.032-.05-0.049-0.08-0.082-0.13s-0.065-.1-0.1-0.15c-1.224-1.86-2.713-1.66-3.838,1.29-0.229.58-.475,1.15-0.7,1.78l-0.656,1.88c-0.508,1.53-1.016,2.86-1.524,4.08a27.309,27.309,0,0,1-1.952,3.88,13.1,13.1,0,0,1-2.82,3.36,6.309,6.309,0,0,1-1.951,1.07,4.481,4.481,0,0,1-2.148.16,5.3,5.3,0,0,1-1.935-.74,8.869,8.869,0,0,1-1.59-1.23,15.987,15.987,0,0,1-2.394-3,33.337,33.337,0,0,1-1.8-3.22,62.652,62.652,0,0,1-2.689-6.41c-1.525-4.23-2.591-8.1-3.345-11.1-0.033-.12-0.049-0.22-0.082-0.33a0.475,0.475,0,0,1,.131-0.4,0.5,0.5,0,0,1,.377-0.13,0.887,0.887,0,0,1,.18.03,0.549,0.549,0,0,1,.312.35c1.066,2.88,2.263,6.29,4.1,10.25,0.984,2.11,1.984,4.04,2.984,5.77,0.607,1,1.213,1.91,1.8,2.7a13.429,13.429,0,0,0,2.049,2.22,3.866,3.866,0,0,0,2.263,1.04,2.787,2.787,0,0,0,1.951-.84,10.014,10.014,0,0,0,1.787-2.45,27.482,27.482,0,0,0,1.492-3.3c0.427-1.1.837-2.32,1.246-3.71l0.673-2.11c0.246-.69.508-1.41,0.8-2.12,0.338-.8.649-1.53,0.986-2.16h0a0.029,0.029,0,0,1,.012-0.02c0-.01,0-0.01.008-0.02h0a12.067,12.067,0,0,1,1.4-2.1,6.178,6.178,0,0,1,1.083-1.01,4.04,4.04,0,0,1,1.459-.68,3.376,3.376,0,0,1,1.639.07,4.443,4.443,0,0,1,1.361.71,8.492,8.492,0,0,1,1.82,1.98,23.039,23.039,0,0,1,1.246,2.07c0.771,1.49,1.394,2.94,1.9,4.17l0.246,0.6c0.787,1.96,1.493,3.92,2.181,5.83l0.672,1.85a74.533,74.533,0,0,0,3.132,7.66c0.328,0.63.623,1.12,0.886,1.53,1.492,2.36,2.475.27,2.771-.21a14.371,14.371,0,0,0,.819-1.6,35.668,35.668,0,0,0,1.41-3.68c0.788-2.4,1.558-5.06,2.247-7.86,0.656-2.62,1.262-5.27,1.836-7.89l0.115-.56c0.246-1.11.492-2.23,0.689-3.28l0.639-3.18,0.066-.3a1.3,1.3,0,0,1,2.558.33v0.03Z" transform="translate(-90.156 -5736.13)"/>
</svg>
