<svg xmlns="http://www.w3.org/2000/svg" width="44.281" height="40.13" viewBox="0 0 44.281 40.13">
  <metadata><?xpacket begin="﻿" id="W5M0MpCehiHzreSzNTczkc9d"?>
<x:xmpmeta xmlns:x="adobe:ns:meta/" x:xmptk="Adobe XMP Core 5.6-c142 79.160924, 2017/07/13-01:06:39        ">
   <rdf:RDF xmlns:rdf="http://www.w3.org/1999/02/22-rdf-syntax-ns#">
      <rdf:Description rdf:about=""/>
   </rdf:RDF>
</x:xmpmeta>
                                                                                                    
                                                                                                    
                                                                                                    
                                                                                                    
                                                                                                    
                                                                                                    
                                                                                                    
                                                                                                    
                                                                                                    
                                                                                                    
                                                                                                    
                                                                                                    
                                                                                                    
                                                                                                    
                                                                                                    
                                                                                                    
                                                                                                    
                                                                                                    
                                                                                                    
                                                                                                    
                           
<?xpacket end="w"?></metadata>
<defs>
    <style>
      .cls-1 {
        fill: #fff;
        fill-rule: evenodd;
      }
    </style>
  </defs>
  <path class="cls-1" d="M125.558,6056.53h-4.674v-4.1h-3.379v4.1h-4.674a1.705,1.705,0,0,0,0,3.41h12.727A1.705,1.705,0,0,0,125.558,6056.53Zm-3.21-9.75H97.056v2.04a1.337,1.337,0,0,0,1.332,1.34H140a1.337,1.337,0,0,0,1.333-1.34v-2.04H122.348ZM140,6019.81H98.389a1.337,1.337,0,0,0-1.332,1.34v23.36h3.116a19.13,19.13,0,0,1,19.022-18.82,18.794,18.794,0,0,1,9.794,2.74l1.117-1.54a1.108,1.108,0,0,1,1.574-.24,1.134,1.134,0,0,1,.244,1.58l-1.077,1.49a19.223,19.223,0,0,1,7.371,14.79h3.116v-23.36A1.337,1.337,0,0,0,140,6019.81Zm-11.27,23.48a9.711,9.711,0,0,0-3.408-5.96l-3.355,4.62a4.387,4.387,0,0,1,1.243,1.8h5.7A1.188,1.188,0,0,1,128.73,6043.29Zm-9.536-8.16a9.593,9.593,0,0,0-7.055,3.08c-0.008.01-.015,0.02-0.024,0.03a1.137,1.137,0,0,1-.2.21,9.787,9.787,0,0,0-2.257,4.84,1.188,1.188,0,0,1-.184.46h5.7a4.29,4.29,0,0,1,4.015-2.83,3.9,3.9,0,0,1,.688.06l3.537-4.88A9.67,9.67,0,0,0,119.194,6035.13Zm16.738,8.62a16.956,16.956,0,0,0-6.416-12.2l-2.871,3.96c0.1,0.08.2,0.16,0.294,0.24a12.065,12.065,0,0,1,4.013,7.16,1.156,1.156,0,0,1-.185.84h5.165Zm-28.495-.84a12.026,12.026,0,0,1,2.144-5.12l-3.916-2.87a0.011,0.011,0,0,0-.012-0.01,16.918,16.918,0,0,0-3.2,8.84h5.165A1.156,1.156,0,0,1,107.437,6042.91Zm-0.331-9.75,3.979,2.92q0.178-.165.365-0.33a11.8,11.8,0,0,1,6.618-2.83V6028A16.67,16.67,0,0,0,107.106,6033.16Zm13.215-5.16v4.92a11.558,11.558,0,0,1,4.44,1.34l2.89-3.99A16.547,16.547,0,0,0,120.321,6028Z" transform="translate(-97.063 -6019.81)"/>
</svg>
