<svg xmlns="http://www.w3.org/2000/svg" width="44.281" height="51.19" viewBox="0 0 44.281 51.19">
  <metadata><?xpacket begin="﻿" id="W5M0MpCehiHzreSzNTczkc9d"?>
<x:xmpmeta xmlns:x="adobe:ns:meta/" x:xmptk="Adobe XMP Core 5.6-c142 79.160924, 2017/07/13-01:06:39        ">
   <rdf:RDF xmlns:rdf="http://www.w3.org/1999/02/22-rdf-syntax-ns#">
      <rdf:Description rdf:about=""/>
   </rdf:RDF>
</x:xmpmeta>
                                                                                                    
                                                                                                    
                                                                                                    
                                                                                                    
                                                                                                    
                                                                                                    
                                                                                                    
                                                                                                    
                                                                                                    
                                                                                                    
                                                                                                    
                                                                                                    
                                                                                                    
                                                                                                    
                                                                                                    
                                                                                                    
                                                                                                    
                                                                                                    
                                                                                                    
                                                                                                    
                           
<?xpacket end="w"?></metadata>
<defs>
    <style>
      .cls-1 {
        fill: #fff;
        fill-rule: evenodd;
      }
    </style>
  </defs>
  <path class="cls-1" d="M139.189,5890.37l-0.848.01v13.06h0.842a2.172,2.172,0,0,0,2.15-2.19v-8.69A2.168,2.168,0,0,0,139.189,5890.37Zm-39.869,0a2.292,2.292,0,0,0-2.263,2.31v8.45a2.3,2.3,0,0,0,2.27,2.31h0.842v-13.06Zm37.066,15.35v-13.5h0a15.275,15.275,0,0,0-.278-2.91c-0.061-.32-0.132-0.63-0.212-0.94v-2.43a16.645,16.645,0,1,0-33.283,0v1.63c-0.077.24-.147,0.48-0.212,0.73a15.23,15.23,0,0,0-.51,3.92v16.01a1.128,1.128,0,0,0,1.117,1.14h3.449a13.026,13.026,0,0,0,24.46,3.65,7.351,7.351,0,0,0,6.782-7.3h-1.313Zm-7.315,1.09a10.116,10.116,0,0,1-.4,2.81h-8.183a1.705,1.705,0,0,0,0,3.41h6.427a9.67,9.67,0,0,1-7.6,3.73,9.869,9.869,0,0,1-9.754-9.95v-10.87a20.153,20.153,0,0,0,5.041-4.47,24.4,24.4,0,0,0,14.467,5.19v10.15h0Zm-7.42-29.62h-5.024a14.513,14.513,0,0,0-9.725,3.74,13.2,13.2,0,0,1,24.829.33A14.551,14.551,0,0,0,121.651,5877.19Zm-5.8,21.97h-2.679a1.705,1.705,0,0,0,0,3.41h2.679A1.705,1.705,0,0,0,115.846,5899.16Zm9.376,0h-2.679a1.705,1.705,0,0,0,0,3.41h2.679A1.705,1.705,0,0,0,125.222,5899.16Z" transform="translate(-97.063 -5868.97)"/>
</svg>
