<svg xmlns="http://www.w3.org/2000/svg" width="49.813" height="49.81" viewBox="0 0 49.813 49.81">
  <metadata><?xpacket begin="﻿" id="W5M0MpCehiHzreSzNTczkc9d"?>
<x:xmpmeta xmlns:x="adobe:ns:meta/" x:xmptk="Adobe XMP Core 5.6-c142 79.160924, 2017/07/13-01:06:39        ">
   <rdf:RDF xmlns:rdf="http://www.w3.org/1999/02/22-rdf-syntax-ns#">
      <rdf:Description rdf:about=""/>
   </rdf:RDF>
</x:xmpmeta>
                                                                                                    
                                                                                                    
                                                                                                    
                                                                                                    
                                                                                                    
                                                                                                    
                                                                                                    
                                                                                                    
                                                                                                    
                                                                                                    
                                                                                                    
                                                                                                    
                                                                                                    
                                                                                                    
                                                                                                    
                                                                                                    
                                                                                                    
                                                                                                    
                                                                                                    
                                                                                                    
                           
<?xpacket end="w"?></metadata>
<defs>
    <style>
      .cls-1 {
        fill: #fff;
        fill-rule: evenodd;
      }
    </style>
  </defs>
  <path id="Forma_1" data-name="Forma 1" class="cls-1" d="M143.942,5604.66a1.625,1.625,0,0,0-1.6-1.23,5.5,5.5,0,0,1-3.764-9.57,1.387,1.387,0,0,0,.152-1.88,24.724,24.724,0,0,0-3.946-3.98,1.387,1.387,0,0,0-1.893.15,5.729,5.729,0,0,1-6.211,1.4,5.547,5.547,0,0,1-3.364-5.41,1.391,1.391,0,0,0-1.222-1.46,24.994,24.994,0,0,0-5.6-.01,1.384,1.384,0,0,0-1.233,1.42,5.551,5.551,0,0,1-3.41,5.32,5.759,5.759,0,0,1-6.165-1.41,1.39,1.39,0,0,0-1.88-.15,24.771,24.771,0,0,0-4.029,3.98,1.383,1.383,0,0,0,.148,1.89,5.525,5.525,0,0,1,1.392,6.22,5.746,5.746,0,0,1-5.418,3.36,1.363,1.363,0,0,0-1.439,1.23,24.936,24.936,0,0,0-.011,5.66,1.656,1.656,0,0,0,1.633,1.23,5.446,5.446,0,0,1,5.124,3.41,5.543,5.543,0,0,1-1.393,6.16,1.388,1.388,0,0,0-.151,1.88,24.83,24.83,0,0,0,3.939,3.98,1.38,1.38,0,0,0,1.9-.15,5.709,5.709,0,0,1,6.208-1.39,5.52,5.52,0,0,1,3.37,5.4,1.394,1.394,0,0,0,1.222,1.46,25.4,25.4,0,0,0,5.6.01,1.384,1.384,0,0,0,1.233-1.42,5.548,5.548,0,0,1,3.408-5.32,5.758,5.758,0,0,1,6.167,1.41,1.39,1.39,0,0,0,1.88.15,24.271,24.271,0,0,0,4.029-3.98,1.38,1.38,0,0,0-.149-1.89,5.5,5.5,0,0,1,3.7-9.59l0.308,0.01a1.4,1.4,0,0,0,1.458-1.23A24.8,24.8,0,0,0,143.942,5604.66Zm-24.748,17.12a14.35,14.35,0,1,1,12.327-6.99l-6.287-6.29a8.808,8.808,0,0,0-8.106-12.24,8.661,8.661,0,0,0-2.321.31,0.972,0.972,0,0,0-.413,1.65s3.1,3.12,4.142,4.16a0.645,0.645,0,0,1,.094.46l-0.01.07a19.87,19.87,0,0,1-.473,3.04,13.137,13.137,0,0,1-.135.14,20.5,20.5,0,0,1-3.085.48v-0.01l-0.052.01a0.31,0.31,0,0,1-.049.01,0.667,0.667,0,0,1-.478-0.21c-1.081-1.08-4.063-4.04-4.063-4.04a0.961,0.961,0,0,0-1.653.43,8.8,8.8,0,0,0,11.933,10.41l6.355,6.36A14.342,14.342,0,0,1,119.194,5621.78Z" transform="translate(-94.313 -5582.53)"/>
</svg>
